<svg xmlns="http://www.w3.org/2000/svg" viewBox="0 0 1200 400" role="img" aria-labelledby="title desc">
  <title id="title">Achievement certification grid</title>
  <desc id="desc">Glass card layout summarizing major certification categories and continuous learning themes.</desc>
  <defs>
    <linearGradient id="bg" x1="0%" y1="0%" x2="100%" y2="100%">
      <stop offset="0%" stop-color="#121319"/>
      <stop offset="100%" stop-color="#24162d"/>
    </linearGradient>
  </defs>
  <rect width="1200" height="400" rx="28" fill="url(#bg)"/>
  <rect x="24" y="24" width="1152" height="352" rx="24" fill="#17131b" fill-opacity="0.82" stroke="#b692d9" stroke-opacity="0.26"/>
  <text x="88" y="90" fill="#f6edf4" font-family="Segoe UI, Arial, sans-serif" font-size="32" font-weight="700">15+ skill modules unlocked</text>
  <g font-family="Segoe UI, Arial, sans-serif">
    <g transform="translate(88 144)">
      <rect width="316" height="92" rx="20" fill="#1d1622" stroke="#e33d82" stroke-opacity="0.35"/>
      <rect x="10" y="10" width="316" height="92" rx="20" fill="none" stroke="#e33d82" stroke-opacity="0.12"/>
      <text x="24" y="32" fill="#f4c397" font-size="18" font-weight="700">AI Foundations</text>
      <text x="24" y="58" fill="#f6edf4" font-size="16">ADiRA, Google AI, IBM AI Agents</text>
      <text x="24" y="80" fill="#aa94aa" font-size="14">Core understanding of modern AI systems</text>
    </g>
    <g transform="translate(442 144)">
      <rect width="316" height="92" rx="20" fill="#1d1622" stroke="#b692d9" stroke-opacity="0.35"/>
      <rect x="10" y="10" width="316" height="92" rx="20" fill="none" stroke="#b692d9" stroke-opacity="0.12"/>
      <text x="24" y="32" fill="#d5c0ea" font-size="18" font-weight="700">Deep Learning</text>
      <text x="24" y="58" fill="#f6edf4" font-size="16">IIT Ropar NPTEL, Stanford / DeepLearning.AI</text>
      <text x="24" y="80" fill="#aa94aa" font-size="14">Modeling depth from supervised ML to neural nets</text>
    </g>
    <g transform="translate(796 144)">
      <rect width="316" height="92" rx="20" fill="#1d1622" stroke="#e97a2d" stroke-opacity="0.35"/>
      <rect x="10" y="10" width="316" height="92" rx="20" fill="none" stroke="#e97a2d" stroke-opacity="0.12"/>
      <text x="24" y="32" fill="#f2a56e" font-size="18" font-weight="700">GenAI Applications</text>
      <text x="24" y="58" fill="#f6edf4" font-size="16">IBM multimodal and generative AI application tracks</text>
      <text x="24" y="80" fill="#aa94aa" font-size="14">From models to usable workflows</text>
    </g>
    <g transform="translate(88 258)">
      <rect width="316" height="92" rx="20" fill="#1d1622" stroke="#f4c397" stroke-opacity="0.35"/>
      <rect x="10" y="10" width="316" height="92" rx="20" fill="none" stroke="#f4c397" stroke-opacity="0.12"/>
      <text x="24" y="32" fill="#f4c397" font-size="18" font-weight="700">RAG + Vector Systems</text>
      <text x="24" y="58" fill="#f6edf4" font-size="16">IBM vector databases, retrievers, and RAG pathways</text>
      <text x="24" y="80" fill="#aa94aa" font-size="14">Retrieval-powered product building</text>
    </g>
    <g transform="translate(442 258)">
      <rect width="316" height="92" rx="20" fill="#1d1622" stroke="#b692d9" stroke-opacity="0.35"/>
      <rect x="10" y="10" width="316" height="92" rx="20" fill="none" stroke="#b692d9" stroke-opacity="0.12"/>
      <text x="24" y="32" fill="#d8c6e8" font-size="18" font-weight="700">Cloud + Productivity</text>
      <text x="24" y="58" fill="#f6edf4" font-size="16">AWS AI and Cloud, Google AI productivity modules</text>
      <text x="24" y="80" fill="#aa94aa" font-size="14">Practical enablement for modern work</text>
    </g>
    <g transform="translate(796 258)">
      <rect width="316" height="92" rx="20" fill="#1d1622" stroke="#e97a2d" stroke-opacity="0.35"/>
      <rect x="10" y="10" width="316" height="92" rx="20" fill="none" stroke="#e97a2d" stroke-opacity="0.12"/>
      <text x="24" y="32" fill="#f3c8a2" font-size="18" font-weight="700">Continuous Learning</text>
      <text x="24" y="58" fill="#f6edf4" font-size="16">Healthcare, analytics, product, and AI growth loops</text>
      <text x="24" y="80" fill="#aa94aa" font-size="14">Always shipping while learning</text>
    </g>
  </g>
</svg>
